<svg width="20" height="20" viewBox="0 0 20 20" fill="none" xmlns="http://www.w3.org/2000/svg">
<rect width="20" height="20" fill="white" fill-opacity="0.01"/>
<mask id="mask0" mask-type="alpha" maskUnits="userSpaceOnUse" x="1" y="1" width="18" height="18">
<path fill-rule="evenodd" clip-rule="evenodd" d="M8.33334 15C4.65144 15 1.66667 12.0153 1.66667 8.33335C1.66667 4.65146 4.65144 1.66669 8.33334 1.66669C12.0152 1.66669 15 4.65146 15 8.33335C15 9.87395 14.4774 11.2925 13.5999 12.4214L18.0893 16.9108L16.9107 18.0893L12.4214 13.5999C11.2925 14.4775 9.87393 15 8.33334 15ZM13.3333 8.33335C13.3333 11.0948 11.0948 13.3334 8.33334 13.3334C5.57191 13.3334 3.33334 11.0948 3.33334 8.33335C3.33334 5.57193 5.57191 3.33335 8.33334 3.33335C11.0948 3.33335 13.3333 5.57193 13.3333 8.33335Z" fill="white"/>
</mask>
<g mask="url(#mask0)">
<rect y="1.66669" width="20" height="20" fill="#4F4F4F"/>
</g>
</svg>
